<?xml version="1.0" encoding="iso-8859-1"?>
<!-- Uploaded to: SVG Repo, www.svgrepo.com, Generator: SVG Repo Mixer Tools -->
<!DOCTYPE svg PUBLIC "-//W3C//DTD SVG 1.1//EN" "http://www.w3.org/Graphics/SVG/1.1/DTD/svg11.dtd">
<svg fill="#000000" height="800px" width="800px" version="1.1" id="Capa_1" xmlns="http://www.w3.org/2000/svg" xmlns:xlink="http://www.w3.org/1999/xlink" 
	 viewBox="0 0 57 57" xml:space="preserve">
<g>
	<path d="M6.74,21h44.125c0.63,0,1.193-0.328,1.508-0.878c0.313-0.548,0.308-1.226-0.012-1.77l-0.131-0.176
		C51.054,16.921,48.124,14,46.302,14h-10.59c-0.478-2.833-2.942-5-5.91-5h-3c-2.967,0-5.431,2.167-5.91,5h-9.59
		c-1.822,0-4.752,2.921-5.927,4.177l-0.131,0.176c-0.32,0.544-0.325,1.222-0.012,1.77C5.546,20.672,6.109,21,6.74,21z M26.802,11h3
		c1.86,0,3.428,1.276,3.874,3H22.928C23.374,12.276,24.941,11,26.802,11z M11.302,16h9.5h15h10.5c0.558,0.007,2.312,1.355,3.942,3
		H7.359C8.971,17.378,10.753,16.007,11.302,16z"/>
	<path d="M54,29h-2.977c0.051-0.576,0.223-1.136,0.52-1.633l1.63-2.734c0.321-0.537,0.329-1.209,0.02-1.754
		C52.884,22.337,52.306,22,51.684,22H5.316c-0.623,0-1.201,0.337-1.509,0.879c-0.309,0.545-0.301,1.217,0.019,1.754l1.631,2.732
		c0.297,0.499,0.469,1.059,0.52,1.635H3c-1.654,0-3,1.346-3,3s1.346,3,3,3h3v2h8c0.552,0,1,0.447,1,1s-0.448,1-1,1H6v2h11
		c0.552,0,1,0.447,1,1s-0.448,1-1,1H6.118c0.559,2.846,3.06,5,6.054,5h32.655C48.231,48,51,45.218,51,41.799V35h3
		c1.654,0,3-1.346,3-3S55.654,29,54,29z M3,33c-0.551,0-1-0.448-1-1s0.449-1,1-1h3v2H3z M12,35H8v-2h4c0.552,0,1,0.447,1,1
		S12.552,35,12,35z M54,33h-3v-2h3c0.551,0,1,0.448,1,1S54.551,33,54,33z"/>
</g>
</svg>